<mxfile host="app.diagrams.net" agent="Mozilla/5.0 (Windows NT 10.0; Win64; x64) AppleWebKit/537.36 (KHTML, like Gecko) Chrome/140.0.0.0 Safari/537.36" version="28.2.5">
  <diagram name="Trang-1" id="mUyZNswphlxvxW1FSy0d">
    <mxGraphModel dx="872" dy="473" grid="1" gridSize="10" guides="1" tooltips="1" connect="1" arrows="1" fold="1" page="1" pageScale="1" pageWidth="827" pageHeight="1169" math="0" shadow="0">
      <root>
        <mxCell id="0" />
        <mxCell id="1" parent="0" />
        <mxCell id="o309R9SRPsqzOtYfCa11-39" style="edgeStyle=orthogonalEdgeStyle;rounded=0;orthogonalLoop=1;jettySize=auto;html=1;exitX=0.5;exitY=1;exitDx=0;exitDy=0;" edge="1" parent="1" source="o309R9SRPsqzOtYfCa11-1" target="o309R9SRPsqzOtYfCa11-2">
          <mxGeometry relative="1" as="geometry" />
        </mxCell>
        <mxCell id="o309R9SRPsqzOtYfCa11-1" value="Start" style="ellipse;whiteSpace=wrap;html=1;" vertex="1" parent="1">
          <mxGeometry x="40" y="40" width="120" height="80" as="geometry" />
        </mxCell>
        <mxCell id="o309R9SRPsqzOtYfCa11-15" style="edgeStyle=orthogonalEdgeStyle;rounded=0;orthogonalLoop=1;jettySize=auto;html=1;exitX=0.5;exitY=1;exitDx=0;exitDy=0;entryX=0.5;entryY=0;entryDx=0;entryDy=0;" edge="1" parent="1" source="o309R9SRPsqzOtYfCa11-2" target="o309R9SRPsqzOtYfCa11-3">
          <mxGeometry relative="1" as="geometry" />
        </mxCell>
        <mxCell id="o309R9SRPsqzOtYfCa11-2" value="Nhập a, b, c" style="shape=parallelogram;perimeter=parallelogramPerimeter;whiteSpace=wrap;html=1;fixedSize=1;" vertex="1" parent="1">
          <mxGeometry x="40" y="160" width="120" height="60" as="geometry" />
        </mxCell>
        <mxCell id="o309R9SRPsqzOtYfCa11-16" style="edgeStyle=orthogonalEdgeStyle;rounded=0;orthogonalLoop=1;jettySize=auto;html=1;exitX=0.5;exitY=1;exitDx=0;exitDy=0;entryX=0.5;entryY=0;entryDx=0;entryDy=0;" edge="1" parent="1" source="o309R9SRPsqzOtYfCa11-3" target="o309R9SRPsqzOtYfCa11-4">
          <mxGeometry relative="1" as="geometry" />
        </mxCell>
        <mxCell id="o309R9SRPsqzOtYfCa11-21" style="edgeStyle=orthogonalEdgeStyle;rounded=0;orthogonalLoop=1;jettySize=auto;html=1;exitX=1;exitY=0.5;exitDx=0;exitDy=0;entryX=0;entryY=0.5;entryDx=0;entryDy=0;" edge="1" parent="1" source="o309R9SRPsqzOtYfCa11-3" target="o309R9SRPsqzOtYfCa11-5">
          <mxGeometry relative="1" as="geometry" />
        </mxCell>
        <mxCell id="o309R9SRPsqzOtYfCa11-3" value="a = 0?" style="rhombus;whiteSpace=wrap;html=1;" vertex="1" parent="1">
          <mxGeometry x="60" y="260" width="80" height="80" as="geometry" />
        </mxCell>
        <mxCell id="o309R9SRPsqzOtYfCa11-17" style="edgeStyle=orthogonalEdgeStyle;rounded=0;orthogonalLoop=1;jettySize=auto;html=1;exitX=0.5;exitY=1;exitDx=0;exitDy=0;entryX=0.5;entryY=0;entryDx=0;entryDy=0;" edge="1" parent="1" source="o309R9SRPsqzOtYfCa11-4" target="o309R9SRPsqzOtYfCa11-13">
          <mxGeometry relative="1" as="geometry" />
        </mxCell>
        <mxCell id="o309R9SRPsqzOtYfCa11-4" value="bx + c = 0" style="rounded=0;whiteSpace=wrap;html=1;" vertex="1" parent="1">
          <mxGeometry x="40" y="380" width="120" height="60" as="geometry" />
        </mxCell>
        <mxCell id="o309R9SRPsqzOtYfCa11-23" style="edgeStyle=orthogonalEdgeStyle;rounded=0;orthogonalLoop=1;jettySize=auto;html=1;exitX=1;exitY=0.5;exitDx=0;exitDy=0;entryX=0;entryY=0.5;entryDx=0;entryDy=0;" edge="1" parent="1" source="o309R9SRPsqzOtYfCa11-5" target="o309R9SRPsqzOtYfCa11-6">
          <mxGeometry relative="1" as="geometry" />
        </mxCell>
        <mxCell id="o309R9SRPsqzOtYfCa11-5" value="&lt;span style=&quot;font-family: Arial, sans-serif; font-size: 16px; text-align: left; white-space-collapse: preserve; background-color: rgb(255, 255, 255);&quot;&gt;Δ &lt;/span&gt;= b^2 - 4ac" style="rounded=0;whiteSpace=wrap;html=1;" vertex="1" parent="1">
          <mxGeometry x="220" y="270" width="120" height="60" as="geometry" />
        </mxCell>
        <mxCell id="o309R9SRPsqzOtYfCa11-20" style="edgeStyle=orthogonalEdgeStyle;rounded=0;orthogonalLoop=1;jettySize=auto;html=1;exitX=0.5;exitY=1;exitDx=0;exitDy=0;entryX=0.5;entryY=0;entryDx=0;entryDy=0;" edge="1" parent="1" source="o309R9SRPsqzOtYfCa11-6" target="o309R9SRPsqzOtYfCa11-7">
          <mxGeometry relative="1" as="geometry" />
        </mxCell>
        <mxCell id="o309R9SRPsqzOtYfCa11-22" style="edgeStyle=orthogonalEdgeStyle;rounded=0;orthogonalLoop=1;jettySize=auto;html=1;exitX=1;exitY=0.5;exitDx=0;exitDy=0;entryX=0;entryY=0.5;entryDx=0;entryDy=0;" edge="1" parent="1" source="o309R9SRPsqzOtYfCa11-6" target="o309R9SRPsqzOtYfCa11-8">
          <mxGeometry relative="1" as="geometry" />
        </mxCell>
        <mxCell id="o309R9SRPsqzOtYfCa11-6" value="&lt;span style=&quot;font-family: Arial, sans-serif; font-size: 16px; text-align: left; white-space-collapse: preserve; background-color: rgb(255, 255, 255);&quot;&gt;Δ &lt;/span&gt;&amp;nbsp;&amp;lt; 0?" style="rhombus;whiteSpace=wrap;html=1;" vertex="1" parent="1">
          <mxGeometry x="420" y="260" width="80" height="80" as="geometry" />
        </mxCell>
        <mxCell id="o309R9SRPsqzOtYfCa11-32" style="edgeStyle=orthogonalEdgeStyle;rounded=0;orthogonalLoop=1;jettySize=auto;html=1;exitX=0.5;exitY=1;exitDx=0;exitDy=0;entryX=0.5;entryY=0;entryDx=0;entryDy=0;" edge="1" parent="1" source="o309R9SRPsqzOtYfCa11-7" target="o309R9SRPsqzOtYfCa11-26">
          <mxGeometry relative="1" as="geometry" />
        </mxCell>
        <mxCell id="o309R9SRPsqzOtYfCa11-7" value="Vô nghiệm" style="shape=parallelogram;perimeter=parallelogramPerimeter;whiteSpace=wrap;html=1;fixedSize=1;" vertex="1" parent="1">
          <mxGeometry x="400" y="480" width="120" height="60" as="geometry" />
        </mxCell>
        <mxCell id="o309R9SRPsqzOtYfCa11-18" style="edgeStyle=orthogonalEdgeStyle;rounded=0;orthogonalLoop=1;jettySize=auto;html=1;exitX=0.5;exitY=1;exitDx=0;exitDy=0;entryX=0.5;entryY=0;entryDx=0;entryDy=0;" edge="1" parent="1" source="o309R9SRPsqzOtYfCa11-8" target="o309R9SRPsqzOtYfCa11-9">
          <mxGeometry relative="1" as="geometry" />
        </mxCell>
        <mxCell id="o309R9SRPsqzOtYfCa11-24" style="edgeStyle=orthogonalEdgeStyle;rounded=0;orthogonalLoop=1;jettySize=auto;html=1;exitX=1;exitY=0.5;exitDx=0;exitDy=0;entryX=0.5;entryY=0;entryDx=0;entryDy=0;" edge="1" parent="1" source="o309R9SRPsqzOtYfCa11-8" target="o309R9SRPsqzOtYfCa11-11">
          <mxGeometry relative="1" as="geometry" />
        </mxCell>
        <mxCell id="o309R9SRPsqzOtYfCa11-8" value="&lt;span style=&quot;font-family: Arial, sans-serif; font-size: 16px; text-align: left; white-space-collapse: preserve; background-color: rgb(255, 255, 255);&quot;&gt;Δ &lt;/span&gt;&amp;nbsp;= 0?" style="rhombus;whiteSpace=wrap;html=1;" vertex="1" parent="1">
          <mxGeometry x="580" y="260" width="80" height="80" as="geometry" />
        </mxCell>
        <mxCell id="o309R9SRPsqzOtYfCa11-19" style="edgeStyle=orthogonalEdgeStyle;rounded=0;orthogonalLoop=1;jettySize=auto;html=1;exitX=0.5;exitY=1;exitDx=0;exitDy=0;entryX=0.5;entryY=0;entryDx=0;entryDy=0;" edge="1" parent="1" source="o309R9SRPsqzOtYfCa11-9" target="o309R9SRPsqzOtYfCa11-13">
          <mxGeometry relative="1" as="geometry" />
        </mxCell>
        <mxCell id="o309R9SRPsqzOtYfCa11-9" value="x = -b / 2a" style="rounded=0;whiteSpace=wrap;html=1;" vertex="1" parent="1">
          <mxGeometry x="560" y="380" width="120" height="60" as="geometry" />
        </mxCell>
        <mxCell id="o309R9SRPsqzOtYfCa11-25" style="edgeStyle=orthogonalEdgeStyle;rounded=0;orthogonalLoop=1;jettySize=auto;html=1;exitX=0.5;exitY=1;exitDx=0;exitDy=0;entryX=0.5;entryY=0;entryDx=0;entryDy=0;" edge="1" parent="1" source="o309R9SRPsqzOtYfCa11-11" target="o309R9SRPsqzOtYfCa11-14">
          <mxGeometry relative="1" as="geometry" />
        </mxCell>
        <mxCell id="o309R9SRPsqzOtYfCa11-11" value="&lt;div style=&quot;&quot;&gt;&lt;ul style=&quot;box-sizing: border-box; margin: 0px; padding: 0px 0px 0px 2rem; list-style: circle; font-family: Arial, sans-serif; white-space: pre; background-color: rgb(255, 255, 255); padding-inline-start: 48px;&quot;&gt;&lt;li style=&quot;box-sizing: border-box; margin: 0px; padding: 0px; background-color: transparent; font-variant-numeric: normal; font-variant-east-asian: normal; font-variant-alternates: normal; font-variant-position: normal; font-variant-emoji: normal; list-style-type: disc; vertical-align: baseline;&quot; aria-level=&quot;4&quot; dir=&quot;ltr&quot;&gt;&lt;span style=&quot;box-sizing: border-box; margin: 0px; padding: 0px; background-color: transparent;&quot;&gt;&lt;span style=&quot;box-sizing: border-box; margin: 0px; padding: 0px; font-variant-numeric: normal; font-variant-east-asian: normal; font-variant-alternates: normal; font-variant-position: normal; font-variant-emoji: normal; vertical-align: baseline; text-wrap-mode: wrap;&quot;&gt;&lt;font&gt;x₁ = (-b + √Δ) / (2a)&lt;/font&gt;&lt;/span&gt;&lt;/span&gt;&lt;/li&gt;&lt;li style=&quot;box-sizing: border-box; margin: 0px; padding: 0px; background-color: transparent; font-variant-numeric: normal; font-variant-east-asian: normal; font-variant-alternates: normal; font-variant-position: normal; font-variant-emoji: normal; list-style-type: disc; vertical-align: baseline;&quot; aria-level=&quot;4&quot; dir=&quot;ltr&quot;&gt;&lt;span style=&quot;box-sizing: border-box; margin: 0px; padding: 0px; background-color: transparent;&quot;&gt;&lt;span style=&quot;box-sizing: border-box; margin: 0px; padding: 0px; font-variant-numeric: normal; font-variant-east-asian: normal; font-variant-alternates: normal; font-variant-position: normal; font-variant-emoji: normal; vertical-align: baseline; text-wrap-mode: wrap;&quot;&gt;&lt;font&gt;x₂ = (-b - √Δ) / (2a)&lt;/font&gt;&lt;/span&gt;&lt;/span&gt;&lt;/li&gt;&lt;/ul&gt;&lt;/div&gt;" style="rounded=0;whiteSpace=wrap;html=1;align=left;" vertex="1" parent="1">
          <mxGeometry x="720" y="380" width="120" height="60" as="geometry" />
        </mxCell>
        <mxCell id="o309R9SRPsqzOtYfCa11-27" style="edgeStyle=orthogonalEdgeStyle;rounded=0;orthogonalLoop=1;jettySize=auto;html=1;exitX=0.5;exitY=1;exitDx=0;exitDy=0;entryX=0.5;entryY=0;entryDx=0;entryDy=0;" edge="1" parent="1" source="o309R9SRPsqzOtYfCa11-13" target="o309R9SRPsqzOtYfCa11-26">
          <mxGeometry relative="1" as="geometry" />
        </mxCell>
        <mxCell id="o309R9SRPsqzOtYfCa11-13" value="x" style="shape=parallelogram;perimeter=parallelogramPerimeter;whiteSpace=wrap;html=1;fixedSize=1;" vertex="1" parent="1">
          <mxGeometry x="40" y="480" width="120" height="60" as="geometry" />
        </mxCell>
        <mxCell id="o309R9SRPsqzOtYfCa11-30" style="edgeStyle=orthogonalEdgeStyle;rounded=0;orthogonalLoop=1;jettySize=auto;html=1;exitX=0.5;exitY=1;exitDx=0;exitDy=0;entryX=0.5;entryY=0;entryDx=0;entryDy=0;" edge="1" parent="1" source="o309R9SRPsqzOtYfCa11-14" target="o309R9SRPsqzOtYfCa11-26">
          <mxGeometry relative="1" as="geometry" />
        </mxCell>
        <mxCell id="o309R9SRPsqzOtYfCa11-14" value="x1, x2" style="shape=parallelogram;perimeter=parallelogramPerimeter;whiteSpace=wrap;html=1;fixedSize=1;" vertex="1" parent="1">
          <mxGeometry x="720" y="480" width="120" height="60" as="geometry" />
        </mxCell>
        <mxCell id="o309R9SRPsqzOtYfCa11-26" value="End" style="ellipse;whiteSpace=wrap;html=1;" vertex="1" parent="1">
          <mxGeometry x="40" y="584.5" width="120" height="80" as="geometry" />
        </mxCell>
        <mxCell id="o309R9SRPsqzOtYfCa11-33" value="True" style="text;html=1;align=center;verticalAlign=middle;whiteSpace=wrap;rounded=0;" vertex="1" parent="1">
          <mxGeometry x="100" y="340" width="60" height="30" as="geometry" />
        </mxCell>
        <mxCell id="o309R9SRPsqzOtYfCa11-34" value="False" style="text;html=1;align=center;verticalAlign=middle;whiteSpace=wrap;rounded=0;" vertex="1" parent="1">
          <mxGeometry x="140" y="270" width="60" height="30" as="geometry" />
        </mxCell>
        <mxCell id="o309R9SRPsqzOtYfCa11-35" value="True" style="text;html=1;align=center;verticalAlign=middle;whiteSpace=wrap;rounded=0;" vertex="1" parent="1">
          <mxGeometry x="460" y="380" width="60" height="30" as="geometry" />
        </mxCell>
        <mxCell id="o309R9SRPsqzOtYfCa11-36" value="True" style="text;html=1;align=center;verticalAlign=middle;whiteSpace=wrap;rounded=0;" vertex="1" parent="1">
          <mxGeometry x="620" y="340" width="60" height="30" as="geometry" />
        </mxCell>
        <mxCell id="o309R9SRPsqzOtYfCa11-37" value="False" style="text;html=1;align=center;verticalAlign=middle;whiteSpace=wrap;rounded=0;" vertex="1" parent="1">
          <mxGeometry x="500" y="270" width="60" height="30" as="geometry" />
        </mxCell>
        <mxCell id="o309R9SRPsqzOtYfCa11-38" value="False" style="text;html=1;align=center;verticalAlign=middle;whiteSpace=wrap;rounded=0;" vertex="1" parent="1">
          <mxGeometry x="680" y="270" width="60" height="30" as="geometry" />
        </mxCell>
      </root>
    </mxGraphModel>
  </diagram>
</mxfile>
